<?xml version="1.0" encoding="UTF-8" standalone="no"?>
<svg width="156px" height="32px" viewBox="0 0 156 32" version="1.1" xmlns="http://www.w3.org/2000/svg" xmlns:xlink="http://www.w3.org/1999/xlink">
    <title>Genesis logo</title>
    <g id="Page-1" stroke="none" stroke-width="1" fill="none" fill-rule="evenodd">
        <g id="Chill-Studio-Website-2" transform="translate(-507.000000, -938.000000)">
            <g id="Group-12" transform="translate(467.000000, 19.000000)">
                <g id="Group-4" transform="translate(0.000000, 705.000000)">
                    <g id="Group-7">
                        <g id="Genesis-logo" transform="translate(40.000000, 212.000000)">
                            <rect id="Rectangle-path" x="0" y="0" width="156" height="36"></rect>
                            <g id="a-link" transform="translate(33.000000, 2.000000)" stroke="#FFFFFF" stroke-width="0.5" fill="#FFFFFF">
                                <path d="M71.557201,22.2775207 L71.477802,22.2951201 C71.864392,24.9202332 72.836892,26.9558807 74.395332,28.4021236 C75.977934,29.8483665 77.983338,30.5714771 80.411605,30.5714771 C82.972762,30.5714771 85.117095,29.7207587 86.844668,28.0192965 C88.560161,26.3299876 89.417894,24.1910386 89.417894,21.6023854 C89.417894,19.6700105 88.892381,18.0384542 87.84134,16.7076677 C86.790299,15.3768812 85.129196,14.2496794 82.857981,13.3260285 L80.0673,12.1775472 C78.037704,11.3389694 77.022921,10.2330356 77.022921,8.8597125 C77.022921,7.86314177 77.409505,7.03672966 78.182685,6.38045138 C78.955864,5.7120198 79.928364,5.37780902 81.100215,5.37780902 C82.054608,5.37780902 82.833817,5.57225893 83.437863,5.96116458 C84.017748,6.30145702 84.627826,7.03064417 85.268115,8.1487479 L88.693042,6.10700347 C86.880902,2.94714508 84.362066,1.36723958 81.136457,1.36723958 C78.744433,1.36723958 76.745069,2.08427361 75.138305,3.51836319 C73.531542,4.94029947 72.728172,6.70857831 72.728172,8.8232528 C72.728172,11.9588046 74.642971,14.3408159 78.472626,15.9693583 L81.1727,17.0996097 C81.873394,17.4034422 82.477431,17.7224616 82.98483,18.0566774 C83.49223,18.3908932 83.905995,18.7494102 84.22614,19.1322392 C84.546284,19.5150682 84.781859,19.9343508 84.932871,20.3900996 C85.083882,20.8458484 85.159387,21.3471646 85.159387,21.8940632 C85.159387,23.2552329 84.72448,24.3793965 83.854653,25.2665875 C82.984826,26.1537785 81.891518,26.5973673 80.574697,26.5973673 C78.907528,26.5973673 77.63905,25.9897114 76.769223,24.7743812 C76.382622,24.2687891 76.088811,23.4365081 75.887785,22.2775207 L71.557201,22.2775207 L71.557201,22.2775207 Z M104.139307,22.2775207 L104.059908,22.2951201 C104.446498,24.9202332 105.418998,26.9558807 106.977438,28.4021236 C108.56004,29.8483665 110.565444,30.5714771 112.993711,30.5714771 C115.554869,30.5714771 117.699202,29.7207587 119.426775,28.0192965 C121.142267,26.3299876 122,24.1910386 122,21.6023854 C122,19.6700105 121.474487,18.0384542 120.423446,16.7076677 C119.372406,15.3768812 117.711303,14.2496794 115.440088,13.3260285 L112.649407,12.1775472 C110.61981,11.3389694 109.605027,10.2330356 109.605027,8.8597125 C109.605027,7.86314177 109.991611,7.03672966 110.764791,6.38045138 C111.53797,5.7120198 112.510471,5.37780902 113.682321,5.37780902 C114.636715,5.37780902 115.415923,5.57225893 116.019969,5.96116458 C116.599854,6.30145702 117.209932,7.03064417 117.850221,8.1487479 L121.275148,6.10700347 C119.463008,2.94714508 116.944172,1.36723958 113.718564,1.36723958 C111.326539,1.36723958 109.327175,2.08427361 107.720412,3.51836319 C106.113648,4.94029947 105.310278,6.70857831 105.310278,8.8232528 C105.310278,11.9588046 107.225077,14.3408159 111.054732,15.9693583 L113.754806,17.0996097 C114.4555,17.4034422 115.059538,17.7224616 115.566937,18.0566774 C116.074336,18.3908932 116.488101,18.7494102 116.808246,19.1322392 C117.128391,19.5150682 117.363965,19.9343508 117.514977,20.3900996 C117.665989,20.8458484 117.741493,21.3471646 117.741493,21.8940632 C117.741493,23.2552329 117.306586,24.3793965 116.436759,25.2665875 C115.566932,26.1537785 114.473625,26.5973673 113.156803,26.5973673 C111.489635,26.5973673 110.221156,25.9897114 109.351329,24.7743812 C108.964728,24.2687891 108.670917,23.4365081 108.469891,22.2775207 L104.139307,22.2775207 L104.139307,22.2775207 Z M98.732244,1.91413541 L98.732244,30.0610409 L94.50998,30.0610409 L94.50998,1.91413541 L98.732244,1.91413541 L98.732244,1.91413541 Z M67.328023,5.90647499 L56.1109352,5.90647499 L56.1109352,12.6697535 L67.001839,12.6697535 L67.001839,16.662093 L56.1109352,16.662093 L56.1109352,26.0687014 L67.328023,26.0687014 L67.328023,30.0610409 L51.8886712,30.0610409 L51.8886712,1.91413541 L67.328023,1.91413541 L67.328023,5.90647499 L67.328023,5.90647499 Z M21.6801233,30.0610409 L21.6801233,0 L42.0847127,21.4747764 L42.0847127,1.91413541 L46.3069767,1.91413541 L46.3069767,31.7746479 L25.9023874,10.3545611 L25.9023874,30.0610409 L21.6801233,30.0610409 L21.6801233,30.0610409 Z M16.135004,5.90647499 L4.9179162,5.90647499 L4.9179162,12.6697535 L15.8088205,12.6697535 L15.8088205,16.662093 L4.9179162,16.662093 L4.9179162,26.0687014 L16.135004,26.0687014 L16.135004,30.0610409 L0.6956522,30.0610409 L0.6956522,1.91413541 L16.135004,1.91413541 L16.135004,5.90647499 L16.135004,5.90647499 Z" id="a"></path>
                            </g>
                            <path d="M22.366348,12.1178892 C20.5942142,9.8029903 17.8011923,8.30985915 14.6591625,8.30985915 C9.30332603,8.30985915 4.9615627,12.648283 4.9615627,18 C4.9615627,23.351717 9.30332603,27.6901408 14.6591625,27.6901408 C17.6031567,27.6901408 20.2407509,26.3792961 22.0192679,24.3098592 L22.0144928,24.3098592 L22.0144928,18 L24.3567623,18 L29.318325,17.9999998 L26.9565217,18 L26.9565217,25.9761148 C24.3423009,29.9922173 19.8111029,32.6478873 14.6591625,32.6478873 C6.56313061,32.6478873 0,26.0898048 0,18 C0,9.91019521 6.56313061,3.35211268 14.6591625,3.35211268 C19.5491158,3.35211268 23.8798536,5.7445572 26.5430046,9.42192743 L22.366348,12.1178892 L22.366348,12.1178892 Z" id="Shape" fill="#FFFFFF"></path>
                        </g>
                    </g>
                </g>
            </g>
        </g>
    </g>
</svg>