<?xml version="1.0" encoding="UTF-8" standalone="no"?>
<svg width="73px" height="32px" viewBox="0 0 73 32" version="1.1" xmlns="http://www.w3.org/2000/svg" xmlns:xlink="http://www.w3.org/1999/xlink">
    <title>智行logo</title>
    <g id="Page-1" stroke="none" stroke-width="1" fill="none" fill-rule="evenodd">
        <g id="Chill-Studio-Website-2" transform="translate(-507.000000, -310.000000)" fill="#FFFFFF">
            <g id="Group-12" transform="translate(467.000000, 19.000000)">
                <g id="Group-4" transform="translate(0.000000, 75.000000)">
                    <g id="Group-7">
                        <path d="M72.4765178,247.853379 L72.4765178,233.154639 L40.8064147,233.154639 L40.8064147,247.853379 L72.4765178,247.853379 L72.4765178,247.853379 Z M72.7697595,231.981672 L72.7697595,216.586483 L58.6941581,216.586483 L58.6941581,231.981672 L72.7697595,231.981672 L72.7697595,231.981672 Z M46.3046964,216 L41.4662085,216 L40,221.20504 L44.838488,221.20504 L45.3516609,219.372279 L46.5246277,219.372279 L46.5246277,222.671249 L40.6597938,222.671249 L40.6597938,225.237113 L46.5246277,225.237113 L46.5246277,226.190149 L40.3665521,227.876289 L40.3665521,232.568156 L49.163803,229.85567 L57.5211913,232.348225 L57.5211913,227.729668 L51.9495991,226.190149 L51.9495991,225.237113 L57.3745704,225.237113 L57.3745704,222.671249 L51.9495991,222.671249 L51.9495991,219.372279 L57.0813288,219.372279 L57.0813288,216.806415 L46.0847652,216.806415 L46.3046964,216 L46.3046964,216 Z M67.0515464,235.720504 L67.0515464,239.166094 L46.231386,239.166094 L46.231386,235.720504 L67.0515464,235.720504 L67.0515464,235.720504 Z M46.231386,245.32417 L46.231386,241.731959 L67.0515464,241.731959 L67.0515464,245.32417 L46.231386,245.32417 L46.231386,245.32417 Z M64.1191294,229.415808 L64.1191294,219.152348 L67.3447881,219.152348 L67.3447881,229.415808 L64.1191294,229.415808 L64.1191294,229.415808 Z M111.770905,219.5189 L111.770905,216.953036 L90.510882,216.953036 L90.510882,219.5189 L111.770905,219.5189 L111.770905,219.5189 Z M102.31386,245.39748 L94.836197,245.39748 L94.836197,247.92669 L107.738832,247.92669 L107.738832,229.635739 L112.504009,229.635739 L112.504009,227.069874 L89.3379152,227.069874 L89.3379152,229.635739 L102.31386,229.635739 L102.31386,245.39748 L102.31386,245.39748 Z M83.1065292,216 L77.6082474,224.797251 L83.3997709,224.797251 L89.0446735,216 L83.1065292,216 L83.1065292,216 Z M82.8132875,226.41008 L76.8018328,236.67354 L80.3940435,236.67354 L80.3940435,248 L85.8190149,248 L85.8190149,233.887743 L84.4994273,233.887743 L88.7514318,226.41008 L82.8132875,226.41008 L82.8132875,226.41008 Z" id="zhixing-logo"></path>
                    </g>
                </g>
            </g>
        </g>
    </g>
</svg>